<svg width="25" height="26" viewBox="0 0 25 26" fill="none" xmlns="http://www.w3.org/2000/svg">
<path fill-rule="evenodd" clip-rule="evenodd" d="M3.05821 11.0466C4.48274 8.89013 7.51934 5.48804 12.5 5.48804C17.4807 5.48804 20.5173 8.89013 21.9418 11.0466C22.4056 11.7488 22.6375 12.0998 22.6161 12.7372C22.5947 13.3745 22.3285 13.724 21.7961 14.423C20.1583 16.5734 16.8288 20.0714 12.5 20.0714C8.17115 20.0714 4.84172 16.5734 3.20389 14.423C2.67152 13.724 2.40533 13.3745 2.38393 12.7372C2.36252 12.0998 2.59442 11.7488 3.05821 11.0466ZM12.5 16.9464C14.8012 16.9464 16.6667 15.0809 16.6667 12.7797C16.6667 10.4785 14.8012 8.61304 12.5 8.61304C10.1988 8.61304 8.33333 10.4785 8.33333 12.7797C8.33333 15.0809 10.1988 16.9464 12.5 16.9464Z" fill="#A2A29F"/>
</svg>
